<svg xmlns="http://www.w3.org/2000/svg" xmlns:xlink="http://www.w3.org/1999/xlink" viewBox="0 0 229.282 337.5"><defs><filter id="a"><feOffset input="SourceAlpha"/><feGaussianBlur stdDeviation="2" result="b"/><feFlood flood-color="#23b7d9"/><feComposite operator="in" in2="b"/><feComposite in="SourceGraphic"/></filter><filter id="c"><feOffset input="SourceAlpha"/><feGaussianBlur stdDeviation="2" result="d"/><feFlood flood-color="#23b7d9"/><feComposite operator="in" in2="d"/><feComposite in="SourceGraphic"/></filter></defs><path d="M159.673,108.968h-5.156v-5.156h5.156Zm0,26.25h-5.156v-5.156h5.156Zm6.562-26.25h-5.156v-5.156h5.156Zm0,6.562h-5.156v-5.156h5.156Zm0,6.563h-5.156v-5.156h5.156Zm0,6.562h-5.156V123.5h5.156Zm0,6.563h-5.156v-5.156h5.156Zm6.563-26.25h-5.156v-5.156H172.8Zm0,26.25h-5.156v-5.156H172.8Z" style="fill:#0d0d0d"/><path d="M185.923,108.968h-5.156v-5.156h5.156Zm6.562,0h-5.156v-5.156h5.156Zm0,6.562h-5.156v-5.156h5.156Zm0,6.563h-5.156v-5.156h5.156Zm0,6.562h-5.156V123.5h5.156Zm0,6.563h-5.156v-5.156h5.156Zm6.563-26.25h-5.156v-5.156h5.156Z" style="fill:#0d0d0d"/><path d="M212.173,115.53h-5.156v-5.156h5.156Zm0,6.563h-5.156v-5.156h5.156Zm0,13.125h-5.156v-5.156h5.156Zm6.562-26.25h-5.156v-5.156h5.156Zm0,13.125h-5.156v-5.156h5.156Zm0,13.125h-5.156v-5.156h5.156Zm6.563-26.25h-5.156v-5.156H225.3Zm0,13.125h-5.156v-5.156H225.3Zm0,6.562h-5.156V123.5H225.3Z" style="fill:#0d0d0d"/><path d="M159.674,203.218h-5.156v-5.156h5.156Zm0,6.562h-5.156v-5.156h5.156Zm0,6.563h-5.156v-5.156h5.156Zm6.562-19.688H161.08V191.5h5.156Zm0,26.25H161.08v-5.156h5.156Zm6.563-19.687h-5.156v-5.156H172.8Zm0,6.562h-5.156v-5.156H172.8Zm0,6.563h-5.156v-5.156H172.8Z" style="fill:#0d0d0d"/><path d="M185.924,196.655h-5.156V191.5h5.156Zm6.562,0H187.33V191.5h5.156Zm0,6.563H187.33v-5.156h5.156Zm0,6.562H187.33v-5.156h5.156Zm0,6.563H187.33v-5.156h5.156Zm0,6.562H187.33v-5.156h5.156Zm6.563-26.25h-5.156V191.5h5.156Z" style="fill:#0d0d0d"/><path d="M212.174,203.218h-5.156v-5.156h5.156Zm0,6.562h-5.156v-5.156h5.156Zm0,13.125h-5.156v-5.156h5.156Zm6.562-26.25H213.58V191.5h5.156Zm0,13.125H213.58v-5.156h5.156Zm0,13.125H213.58v-5.156h5.156Zm6.563-26.25h-5.156V191.5H225.3Zm0,13.125h-5.156v-5.156H225.3Zm0,6.563h-5.156v-5.156H225.3Z" style="fill:#0d0d0d"/><path d="M60.938,92.344H26.562V57.969H60.938Zm0,43.75H26.562V101.719H60.938Zm0,43.75H26.562V145.469H60.938Zm0,43.75H26.562V189.219H60.938Zm0,43.75H26.562V232.969H60.938Zm43.75-175H70.312V57.969h34.376Zm0,87.5H70.312V145.469h34.376Zm0,87.5H70.312V232.969h34.376Zm43.75-131.25H114.062V101.719h34.376Zm0,87.5H114.062V189.219h34.376Z" style="fill:#0d0d0d"/><path d="M159.674,151.968h-5.156v-5.156h5.156Zm0,6.562h-5.156v-5.156h5.156Zm0,13.125h-5.156V166.5h5.156Zm6.562-19.687H161.08v-5.156h5.156Zm0,13.125H161.08v-5.156h5.156Zm0,13.125H161.08v-5.156h5.156ZM172.8,158.53h-5.156v-5.156H172.8Zm0,13.125h-5.156V166.5H172.8Zm0,6.563h-5.156v-5.156H172.8Z" style="fill:#0d0d0d"/><g style="filter:url(#a)"><path d="M127.674,108.468h-5.156v-5.156h5.156Zm0,6.562h-5.156v-5.156h5.156Zm0,6.563h-5.156v-5.156h5.156Zm0,6.562h-5.156V123h5.156Zm0,6.563h-5.156v-5.156h5.156Zm6.562-26.25H129.08v-5.156h5.156Zm0,13.125H129.08v-5.156h5.156Zm0,13.125H129.08v-5.156h5.156ZM140.8,115.03h-5.156v-5.156H140.8Zm0,13.125h-5.156V123H140.8Z" style="fill:#3cf"/></g><g style="filter:url(#c)"><path d="M127.674,195.968h-5.156v-5.156h5.156Zm0,6.562h-5.156v-5.156h5.156Zm0,6.563h-5.156v-5.156h5.156Zm0,6.562h-5.156V210.5h5.156Zm0,6.563h-5.156v-5.156h5.156Zm6.562-26.25H129.08v-5.156h5.156Zm0,13.125H129.08v-5.156h5.156Zm0,13.125H129.08v-5.156h5.156ZM140.8,202.53h-5.156v-5.156H140.8Zm0,13.125h-5.156V210.5H140.8Z" style="fill:#3cf"/></g></svg>