<svg xmlns="http://www.w3.org/2000/svg" viewBox="0 0 229.281 337.5"><path d="M159.672,108.968h-5.156v-5.156h5.156Zm0,26.25h-5.156v-5.156h5.156Zm6.562-26.25h-5.156v-5.156h5.156Zm0,6.562h-5.156v-5.156h5.156Zm0,6.563h-5.156v-5.156h5.156Zm0,6.562h-5.156V123.5h5.156Zm0,6.563h-5.156v-5.156h5.156Zm6.563-26.25h-5.156v-5.156H172.8Zm0,26.25h-5.156v-5.156H172.8Z" style="fill:#fff"/><path d="M185.922,108.968h-5.156v-5.156h5.156Zm6.562,0h-5.156v-5.156h5.156Zm0,6.562h-5.156v-5.156h5.156Zm0,6.563h-5.156v-5.156h5.156Zm0,6.562h-5.156V123.5h5.156Zm0,6.563h-5.156v-5.156h5.156Zm6.563-26.25h-5.156v-5.156h5.156Z" style="fill:#fff"/><path d="M212.172,115.53h-5.156v-5.156h5.156Zm0,6.563h-5.156v-5.156h5.156Zm0,13.125h-5.156v-5.156h5.156Zm6.562-26.25h-5.156v-5.156h5.156Zm0,13.125h-5.156v-5.156h5.156Zm0,13.125h-5.156v-5.156h5.156Zm6.563-26.25h-5.156v-5.156H225.3Zm0,13.125h-5.156v-5.156H225.3Zm0,6.562h-5.156V123.5H225.3Z" style="fill:#fff"/><path d="M159.673,203.218h-5.156v-5.156h5.156Zm0,6.562h-5.156v-5.156h5.156Zm0,6.563h-5.156v-5.156h5.156Zm6.562-19.688h-5.156V191.5h5.156Zm0,26.25h-5.156v-5.156h5.156Zm6.563-19.687h-5.156v-5.156H172.8Zm0,6.562h-5.156v-5.156H172.8Zm0,6.563h-5.156v-5.156H172.8Z" style="fill:#fff"/><path d="M185.923,196.655h-5.156V191.5h5.156Zm6.562,0h-5.156V191.5h5.156Zm0,6.563h-5.156v-5.156h5.156Zm0,6.562h-5.156v-5.156h5.156Zm0,6.563h-5.156v-5.156h5.156Zm0,6.562h-5.156v-5.156h5.156Zm6.563-26.25h-5.156V191.5h5.156Z" style="fill:#fff"/><path d="M212.173,203.218h-5.156v-5.156h5.156Zm0,6.562h-5.156v-5.156h5.156Zm0,13.125h-5.156v-5.156h5.156Zm6.562-26.25h-5.156V191.5h5.156Zm0,13.125h-5.156v-5.156h5.156Zm0,13.125h-5.156v-5.156h5.156Zm6.563-26.25h-5.156V191.5H225.3Zm0,13.125h-5.156v-5.156H225.3Zm0,6.563h-5.156v-5.156H225.3Z" style="fill:#fff"/><path d="M60.938,92.344H26.562V57.969H60.938Zm0,43.75H26.562V101.719H60.938Zm0,43.75H26.562V145.469H60.938Zm0,43.75H26.562V189.219H60.938Zm0,43.75H26.562V232.969H60.938Zm43.75-175H70.312V57.969h34.376Zm0,87.5H70.312V145.469h34.376Zm0,87.5H70.312V232.969h34.376Zm43.75-131.25H114.062V101.719h34.376Zm0,87.5H114.062V189.219h34.376Z" style="fill:#3cf"/><path d="M159.672,151.968h-5.156v-5.156h5.156Zm0,6.562h-5.156v-5.156h5.156Zm0,13.125h-5.156V166.5h5.156Zm6.562-19.687h-5.156v-5.156h5.156Zm0,13.125h-5.156v-5.156h5.156Zm0,13.125h-5.156v-5.156h5.156ZM172.8,158.53h-5.156v-5.156H172.8Zm0,13.125h-5.156V166.5H172.8Zm0,6.563h-5.156v-5.156H172.8Z" style="fill:#fff"/><path d="M127.673,108.468h-5.156v-5.156h5.156Zm0,6.562h-5.156v-5.156h5.156Zm0,6.563h-5.156v-5.156h5.156Zm0,6.562h-5.156V123h5.156Zm0,6.563h-5.156v-5.156h5.156Zm6.562-26.25h-5.156v-5.156h5.156Zm0,13.125h-5.156v-5.156h5.156Zm0,13.125h-5.156v-5.156h5.156ZM140.8,115.03h-5.156v-5.156H140.8Zm0,13.125h-5.156V123H140.8Z" style="fill:#0d0d0d"/><path d="M127.673,195.968h-5.156v-5.156h5.156Zm0,6.562h-5.156v-5.156h5.156Zm0,6.563h-5.156v-5.156h5.156Zm0,6.562h-5.156V210.5h5.156Zm0,6.563h-5.156v-5.156h5.156Zm6.562-26.25h-5.156v-5.156h5.156Zm0,13.125h-5.156v-5.156h5.156Zm0,13.125h-5.156v-5.156h5.156ZM140.8,202.53h-5.156v-5.156H140.8Zm0,13.125h-5.156V210.5H140.8Z" style="fill:#0d0d0d"/></svg>