<?xml version="1.0" encoding="UTF-8"?><svg id="b" xmlns="http://www.w3.org/2000/svg" xmlns:xlink="http://www.w3.org/1999/xlink" viewBox="0 0 229.281 337.5"><defs><filter id="d" filterUnits="userSpaceOnUse"><feOffset dx="0" dy="0"/><feGaussianBlur result="e" stdDeviation="10"/><feFlood flood-color="#3cf" flood-opacity=".85"/><feComposite in2="e" operator="in"/><feComposite in="SourceGraphic"/></filter></defs><g id="c"><g style="filter:url(#d);"><g><g><path d="M159.672,108.968h-5.156v-5.156h5.156v5.156Zm0,26.25h-5.156v-5.156h5.156v5.156Zm6.562-26.25h-5.156v-5.156h5.156v5.156Zm0,6.562h-5.156v-5.156h5.156v5.156Zm0,6.562h-5.156v-5.156h5.156v5.156Zm0,6.562h-5.156v-5.156h5.156v5.156Zm0,6.562h-5.156v-5.156h5.156v5.156Zm6.562-26.25h-5.156v-5.156h5.156v5.156Zm0,26.25h-5.156v-5.156h5.156v5.156Z" style="fill:#fff;"/><path d="M185.922,108.968h-5.156v-5.156h5.156v5.156Zm6.562,0h-5.156v-5.156h5.156v5.156Zm0,6.562h-5.156v-5.156h5.156v5.156Zm0,6.562h-5.156v-5.156h5.156v5.156Zm0,6.562h-5.156v-5.156h5.156v5.156Zm0,6.562h-5.156v-5.156h5.156v5.156Zm6.562-26.25h-5.156v-5.156h5.156v5.156Z" style="fill:#fff;"/><path d="M212.172,115.53h-5.156v-5.156h5.156v5.156Zm0,6.562h-5.156v-5.156h5.156v5.156Zm0,13.125h-5.156v-5.156h5.156v5.156Zm6.562-26.25h-5.156v-5.156h5.156v5.156Zm0,13.125h-5.156v-5.156h5.156v5.156Zm0,13.125h-5.156v-5.156h5.156v5.156Zm6.562-26.25h-5.156v-5.156h5.156v5.156Zm0,13.125h-5.156v-5.156h5.156v5.156Zm0,6.562h-5.156v-5.156h5.156v5.156Z" style="fill:#fff;"/></g><g><path d="M159.673,203.218h-5.156v-5.156h5.156v5.156Zm0,6.562h-5.156v-5.156h5.156v5.156Zm0,6.562h-5.156v-5.156h5.156v5.156Zm6.562-19.688h-5.156v-5.156h5.156v5.156Zm0,26.25h-5.156v-5.156h5.156v5.156Zm6.562-19.688h-5.156v-5.156h5.156v5.156Zm0,6.562h-5.156v-5.156h5.156v5.156Zm0,6.562h-5.156v-5.156h5.156v5.156Z" style="fill:#fff;"/><path d="M185.923,196.655h-5.156v-5.156h5.156v5.156Zm6.562,0h-5.156v-5.156h5.156v5.156Zm0,6.562h-5.156v-5.156h5.156v5.156Zm0,6.562h-5.156v-5.156h5.156v5.156Zm0,6.562h-5.156v-5.156h5.156v5.156Zm0,6.562h-5.156v-5.156h5.156v5.156Zm6.562-26.25h-5.156v-5.156h5.156v5.156Z" style="fill:#fff;"/><path d="M212.173,203.218h-5.156v-5.156h5.156v5.156Zm0,6.562h-5.156v-5.156h5.156v5.156Zm0,13.125h-5.156v-5.156h5.156v5.156Zm6.562-26.25h-5.156v-5.156h5.156v5.156Zm0,13.125h-5.156v-5.156h5.156v5.156Zm0,13.125h-5.156v-5.156h5.156v5.156Zm6.562-26.25h-5.156v-5.156h5.156v5.156Zm0,13.125h-5.156v-5.156h5.156v5.156Zm0,6.562h-5.156v-5.156h5.156v5.156Z" style="fill:#fff;"/></g></g><path d="M60.938,92.344H26.562V57.969H60.938v34.375Zm0,43.75H26.562v-34.375H60.938v34.375Zm0,43.75H26.562v-34.375H60.938v34.375Zm0,43.75H26.562v-34.375H60.938v34.375Zm0,43.75H26.562v-34.375H60.938v34.375ZM104.688,92.344h-34.375V57.969h34.375v34.375Zm0,87.5h-34.375v-34.375h34.375v34.375Zm0,87.5h-34.375v-34.375h34.375v34.375Zm43.75-131.25h-34.375v-34.375h34.375v34.375Zm0,87.5h-34.375v-34.375h34.375v34.375Z" style="fill:#fff;"/><path d="M159.672,151.968h-5.156v-5.156h5.156v5.156Zm0,6.562h-5.156v-5.156h5.156v5.156Zm0,13.125h-5.156v-5.156h5.156v5.156Zm6.562-19.688h-5.156v-5.156h5.156v5.156Zm0,13.125h-5.156v-5.156h5.156v5.156Zm0,13.125h-5.156v-5.156h5.156v5.156Zm6.562-19.688h-5.156v-5.156h5.156v5.156Zm0,13.125h-5.156v-5.156h5.156v5.156Zm0,6.562h-5.156v-5.156h5.156v5.156Z" style="fill:#fff;"/><path d="M127.673,108.468h-5.156v-5.156h5.156v5.156Zm0,6.562h-5.156v-5.156h5.156v5.156Zm0,6.562h-5.156v-5.156h5.156v5.156Zm0,6.562h-5.156v-5.156h5.156v5.156Zm0,6.562h-5.156v-5.156h5.156v5.156Zm6.562-26.25h-5.156v-5.156h5.156v5.156Zm0,13.125h-5.156v-5.156h5.156v5.156Zm0,13.125h-5.156v-5.156h5.156v5.156Zm6.562-19.688h-5.156v-5.156h5.156v5.156Zm0,13.125h-5.156v-5.156h5.156v5.156Z" style="fill:#0d0d0d;"/><path d="M127.673,195.968h-5.156v-5.156h5.156v5.156Zm0,6.562h-5.156v-5.156h5.156v5.156Zm0,6.562h-5.156v-5.156h5.156v5.156Zm0,6.562h-5.156v-5.156h5.156v5.156Zm0,6.562h-5.156v-5.156h5.156v5.156Zm6.562-26.25h-5.156v-5.156h5.156v5.156Zm0,13.125h-5.156v-5.156h5.156v5.156Zm0,13.125h-5.156v-5.156h5.156v5.156Zm6.562-19.688h-5.156v-5.156h5.156v5.156Zm0,13.125h-5.156v-5.156h5.156v5.156Z" style="fill:#0d0d0d;"/></g></g></svg>