<?xml version="1.0" encoding="UTF-8"?><svg xmlns="http://www.w3.org/2000/svg" viewBox="0 0 256.643 67.5"><g id="a"/><g id="b"><g id="c"><g><path d="M123.009,18.469h-6.875v-6.875h6.875v6.875Zm0,8.75h-6.875v-6.875h6.875v6.875Zm0,17.5h-6.875v-6.875h6.875v6.875Zm8.75-26.25h-6.875v-6.875h6.875v6.875Zm0,17.5h-6.875v-6.875h6.875v6.875Zm0,17.5h-6.875v-6.875h6.875v6.875Zm8.75-26.25h-6.875v-6.875h6.875v6.875Zm0,17.5h-6.875v-6.875h6.875v6.875Zm0,8.75h-6.875v-6.875h6.875v6.875Z" style="fill:#fff;"/><g><path d="M9.141,22.289H3.984v-5.156h5.156v5.156Zm0,6.562H3.984v-5.156h5.156v5.156Zm0,6.562H3.984v-5.156h5.156v5.156Zm0,6.562H3.984v-5.156h5.156v5.156Zm0,6.562H3.984v-5.156h5.156v5.156Zm6.562-26.25h-5.156v-5.156h5.156v5.156Zm0,13.125h-5.156v-5.156h5.156v5.156Zm0,13.125h-5.156v-5.156h5.156v5.156Zm6.562-19.688h-5.156v-5.156h5.156v5.156Zm0,13.125h-5.156v-5.156h5.156v5.156Z" style="fill:#fff;"/><path d="M35.391,22.289h-5.156v-5.156h5.156v5.156Zm0,26.25h-5.156v-5.156h5.156v5.156Zm6.562-26.25h-5.156v-5.156h5.156v5.156Zm0,6.562h-5.156v-5.156h5.156v5.156Zm0,6.562h-5.156v-5.156h5.156v5.156Zm0,6.562h-5.156v-5.156h5.156v5.156Zm0,6.562h-5.156v-5.156h5.156v5.156Zm6.562-26.25h-5.156v-5.156h5.156v5.156Zm0,26.25h-5.156v-5.156h5.156v5.156Z" style="fill:#fff;"/><path d="M61.641,22.289h-5.156v-5.156h5.156v5.156Zm6.562,0h-5.156v-5.156h5.156v5.156Zm0,6.562h-5.156v-5.156h5.156v5.156Zm0,6.562h-5.156v-5.156h5.156v5.156Zm0,6.562h-5.156v-5.156h5.156v5.156Zm0,6.562h-5.156v-5.156h5.156v5.156Zm6.562-26.25h-5.156v-5.156h5.156v5.156Z" style="fill:#fff;"/><path d="M87.891,28.852h-5.156v-5.156h5.156v5.156Zm0,6.562h-5.156v-5.156h5.156v5.156Zm0,13.125h-5.156v-5.156h5.156v5.156Zm6.562-26.25h-5.156v-5.156h5.156v5.156Zm0,13.125h-5.156v-5.156h5.156v5.156Zm0,13.125h-5.156v-5.156h5.156v5.156Zm6.562-26.25h-5.156v-5.156h5.156v5.156Zm0,13.125h-5.156v-5.156h5.156v5.156Zm0,6.562h-5.156v-5.156h5.156v5.156Z" style="fill:#fff;"/></g><g><path d="M160.784,22.289h-5.156v-5.156h5.156v5.156Zm0,6.562h-5.156v-5.156h5.156v5.156Zm0,6.562h-5.156v-5.156h5.156v5.156Zm0,6.562h-5.156v-5.156h5.156v5.156Zm0,6.562h-5.156v-5.156h5.156v5.156Zm6.562-26.25h-5.156v-5.156h5.156v5.156Zm0,13.125h-5.156v-5.156h5.156v5.156Zm0,13.125h-5.156v-5.156h5.156v5.156Zm6.562-19.688h-5.156v-5.156h5.156v5.156Zm0,13.125h-5.156v-5.156h5.156v5.156Z" style="fill:#fff;"/><path d="M187.034,28.852h-5.156v-5.156h5.156v5.156Zm0,6.562h-5.156v-5.156h5.156v5.156Zm0,6.562h-5.156v-5.156h5.156v5.156Zm6.562-19.688h-5.156v-5.156h5.156v5.156Zm0,26.25h-5.156v-5.156h5.156v5.156Zm6.562-19.688h-5.156v-5.156h5.156v5.156Zm0,6.562h-5.156v-5.156h5.156v5.156Zm0,6.562h-5.156v-5.156h5.156v5.156Z" style="fill:#fff;"/><path d="M213.284,22.289h-5.156v-5.156h5.156v5.156Zm6.562,0h-5.156v-5.156h5.156v5.156Zm0,6.562h-5.156v-5.156h5.156v5.156Zm0,6.562h-5.156v-5.156h5.156v5.156Zm0,6.562h-5.156v-5.156h5.156v5.156Zm0,6.562h-5.156v-5.156h5.156v5.156Zm6.562-26.25h-5.156v-5.156h5.156v5.156Z" style="fill:#fff;"/><path d="M239.533,28.852h-5.156v-5.156h5.156v5.156Zm0,6.562h-5.156v-5.156h5.156v5.156Zm0,13.125h-5.156v-5.156h5.156v5.156Zm6.562-26.25h-5.156v-5.156h5.156v5.156Zm0,13.125h-5.156v-5.156h5.156v5.156Zm0,13.125h-5.156v-5.156h5.156v5.156Zm6.562-26.25h-5.156v-5.156h5.156v5.156Zm0,13.125h-5.156v-5.156h5.156v5.156Zm0,6.562h-5.156v-5.156h5.156v5.156Z" style="fill:#fff;"/></g></g></g></g></svg>